<?xml version="1.0" encoding="UTF-8"?><svg id="uuid-0043a19e-ece1-40f1-a358-80837539ae2c" xmlns="http://www.w3.org/2000/svg" viewBox="0 0 945 620"><defs><style>.uuid-da4be6e7-8966-4dc1-bd38-bc8c2d930d98{fill:#000000;}</style></defs><path class="uuid-da4be6e7-8966-4dc1-bd38-bc8c2d930d98" d="M489.84,117.28c-23.33-20.5-51.22-36.05-82.95-46.23-32.3-10.77-67.92-16-108.91-16H52v374.92l.07,4.61,47.44-.24h0l193.54-.03c23.23-1.09,42.16-2.92,59.23-8.43,17.63-5.9,32.25-14.61,43.45-25.84,11.05-11.06,19.43-24.4,24.92-39.63,5.33-14.78,8.03-31.66,8.03-50.17,0-20.27-3.44-39.96-9.7-55.5-6.55-16.05-16.05-29.44-28.35-39.9-12.22-10.18-26.74-17.88-43.04-22.85-16.32-5.17-34.17-7.67-54.58-7.67h-111.15v47.57l36-.03,74.77.2c13.1,0,24.99,1.82,35.49,5.45,10.26,3.39,19.04,8.26,26.74,14.79,7.21,6.26,12.98,14.34,17.05,23.84,3.95,9.6,6.23,22.55,6.23,35.51,0,23.58-7.18,42.21-21.33,55.31-13.51,12.52-34.14,18.93-64.39,20.16H99.49V102.08h3.34l194.33.49c31.49,0,60.3,4.7,85.6,13.93,25.67,8.96,47.73,21.89,67.44,39.48,18.88,17.24,33.85,39.29,44.52,65.52,10.35,26.48,15.59,59.74,15.59,92.28,0,62.37-18.56,112.13-55.17,147.91-36.6,35.78-89.89,53.92-158.38,53.92H52v46.3h244.77c45.23,0,85.54-5.92,119.77-17.59,33.71-11.91,61.42-29.17,82.37-51.31,20.78-21.95,36.58-48.47,46.96-78.83,10.35-30.23,15.59-65.12,15.59-103.65,0-41.23-6.31-81.96-18.78-114.51-12.35-31.9-30.15-58.4-52.87-78.76h.02Z"/></svg>